<svg width="18" height="12" viewBox="0 0 18 12" fill="none" xmlns="http://www.w3.org/2000/svg">
<path d="M16.7778 0.444445H1.22222C0.927537 0.444445 0.644921 0.561508 0.436548 0.769882C0.228174 0.978256 0.111111 1.26087 0.111111 1.55556V10.4444C0.111111 10.7391 0.228174 11.0217 0.436548 11.2301C0.644921 11.4385 0.927537 11.5556 1.22222 11.5556H16.7778C17.0725 11.5556 17.3551 11.4385 17.5635 11.2301C17.7718 11.0217 17.8889 10.7391 17.8889 10.4444V1.55556C17.8889 1.26087 17.7718 0.978256 17.5635 0.769882C17.3551 0.561508 17.0725 0.444445 16.7778 0.444445V0.444445ZM9.55556 3.22222H10.6667V4.33333H9.55556V3.22222ZM9.55556 5.44444H10.6667V6.55556H9.55556V5.44444ZM7.33333 3.22222H8.44444V4.33333H7.33333V3.22222ZM7.33333 5.44444H8.44444V6.55556H7.33333V5.44444ZM5.11111 3.22222H6.22222V4.33333H5.11111V3.22222ZM4 9.33333H2.88889V8.22222H4V9.33333ZM4 6.55556H2.88889V5.44444H4V6.55556ZM4 4.33333H2.88889V3.22222H4V4.33333ZM5.11111 5.44444H6.22222V6.55556H5.11111V5.44444ZM12.8222 9.33333H5.18333V8.22222H12.8222V9.33333ZM12.8889 6.55556H11.7778V5.44444H12.8889V6.55556ZM12.8889 4.33333H11.7778V3.22222H12.8889V4.33333ZM15.0778 9.33333H14V8.22222H15.0778V9.33333ZM15.1111 6.55556H14V5.44444H15.1111V6.55556ZM15.1111 4.33333H14V3.22222H15.1111V4.33333Z" fill="#7B7B7B"/>
</svg>
