<svg width="14" height="14" viewBox="0 0 14 14" fill="none" xmlns="http://www.w3.org/2000/svg">
<path d="M3.66667 2C3.66667 2.44203 3.49107 2.86595 3.17851 3.17851C2.86595 3.49107 2.44203 3.66667 2 3.66667C1.55797 3.66667 1.13405 3.49107 0.821487 3.17851C0.508927 2.86595 0.333332 2.44203 0.333332 2C0.333332 1.55797 0.508927 1.13405 0.821487 0.821489C1.13405 0.508929 1.55797 0.333334 2 0.333334C2.44203 0.333334 2.86595 0.508929 3.17851 0.821489C3.49107 1.13405 3.66667 1.55797 3.66667 2V2Z" fill="#7B7B7B"/>
<path d="M3.66667 7C3.66667 7.44203 3.49107 7.86595 3.17851 8.17851C2.86595 8.49107 2.44203 8.66667 2 8.66667C1.55797 8.66667 1.13405 8.49107 0.821487 8.17851C0.508927 7.86595 0.333332 7.44203 0.333332 7C0.333332 6.55797 0.508927 6.13405 0.821487 5.82149C1.13405 5.50893 1.55797 5.33333 2 5.33333C2.44203 5.33333 2.86595 5.50893 3.17851 5.82149C3.49107 6.13405 3.66667 6.55797 3.66667 7Z" fill="#7B7B7B"/>
<path d="M2 13.6667C2.44203 13.6667 2.86595 13.4911 3.17851 13.1785C3.49107 12.866 3.66667 12.442 3.66667 12C3.66667 11.558 3.49107 11.1341 3.17851 10.8215C2.86595 10.5089 2.44203 10.3333 2 10.3333C1.55797 10.3333 1.13405 10.5089 0.821487 10.8215C0.508927 11.1341 0.333332 11.558 0.333332 12C0.333332 12.442 0.508927 12.866 0.821487 13.1785C1.13405 13.4911 1.55797 13.6667 2 13.6667V13.6667Z" fill="#7B7B7B"/>
<path d="M8.66667 2C8.66667 2.44203 8.49107 2.86595 8.17851 3.17851C7.86595 3.49107 7.44203 3.66667 7 3.66667C6.55797 3.66667 6.13405 3.49107 5.82149 3.17851C5.50893 2.86595 5.33333 2.44203 5.33333 2C5.33333 1.55797 5.50893 1.13405 5.82149 0.821489C6.13405 0.508929 6.55797 0.333334 7 0.333334C7.44203 0.333334 7.86595 0.508929 8.17851 0.821489C8.49107 1.13405 8.66667 1.55797 8.66667 2V2Z" fill="#7B7B7B"/>
<path d="M7 8.66667C7.44203 8.66667 7.86595 8.49107 8.17851 8.17851C8.49107 7.86595 8.66667 7.44203 8.66667 7C8.66667 6.55797 8.49107 6.13405 8.17851 5.82149C7.86595 5.50893 7.44203 5.33333 7 5.33333C6.55797 5.33333 6.13405 5.50893 5.82149 5.82149C5.50893 6.13405 5.33333 6.55797 5.33333 7C5.33333 7.44203 5.50893 7.86595 5.82149 8.17851C6.13405 8.49107 6.55797 8.66667 7 8.66667Z" fill="#7B7B7B"/>
<path d="M8.66667 12C8.66667 12.442 8.49107 12.866 8.17851 13.1785C7.86595 13.4911 7.44203 13.6667 7 13.6667C6.55797 13.6667 6.13405 13.4911 5.82149 13.1785C5.50893 12.866 5.33333 12.442 5.33333 12C5.33333 11.558 5.50893 11.1341 5.82149 10.8215C6.13405 10.5089 6.55797 10.3333 7 10.3333C7.44203 10.3333 7.86595 10.5089 8.17851 10.8215C8.49107 11.1341 8.66667 11.558 8.66667 12V12Z" fill="#7B7B7B"/>
<path d="M12 3.66667C12.442 3.66667 12.8659 3.49107 13.1785 3.17851C13.4911 2.86595 13.6667 2.44203 13.6667 2C13.6667 1.55797 13.4911 1.13405 13.1785 0.821489C12.8659 0.508929 12.442 0.333334 12 0.333334C11.558 0.333334 11.134 0.508929 10.8215 0.821489C10.5089 1.13405 10.3333 1.55797 10.3333 2C10.3333 2.44203 10.5089 2.86595 10.8215 3.17851C11.134 3.49107 11.558 3.66667 12 3.66667V3.66667Z" fill="#7B7B7B"/>
<path d="M13.6667 7C13.6667 7.44203 13.4911 7.86595 13.1785 8.17851C12.8659 8.49107 12.442 8.66667 12 8.66667C11.558 8.66667 11.134 8.49107 10.8215 8.17851C10.5089 7.86595 10.3333 7.44203 10.3333 7C10.3333 6.55797 10.5089 6.13405 10.8215 5.82149C11.134 5.50893 11.558 5.33333 12 5.33333C12.442 5.33333 12.8659 5.50893 13.1785 5.82149C13.4911 6.13405 13.6667 6.55797 13.6667 7Z" fill="#7B7B7B"/>
<path d="M12 13.6667C12.442 13.6667 12.8659 13.4911 13.1785 13.1785C13.4911 12.866 13.6667 12.442 13.6667 12C13.6667 11.558 13.4911 11.1341 13.1785 10.8215C12.8659 10.5089 12.442 10.3333 12 10.3333C11.558 10.3333 11.134 10.5089 10.8215 10.8215C10.5089 11.1341 10.3333 11.558 10.3333 12C10.3333 12.442 10.5089 12.866 10.8215 13.1785C11.134 13.4911 11.558 13.6667 12 13.6667V13.6667Z" fill="#7B7B7B"/>
</svg>
