<svg width="14" height="30" viewBox="0 0 14 20" fill="none" xmlns="http://www.w3.org/2000/svg">
<path d="M6.875 13.75C8.94609 13.75 10.625 12.0711 10.625 10V3.75C10.625 1.67891 8.94609 0 6.875 0C4.80391 0 3.125 1.67891 3.125 3.75V10C3.125 12.0711 4.80391 13.75 6.875 13.75ZM13.125 7.5H12.5C12.1547 7.5 11.875 7.77969 11.875 8.125V10C11.875 12.9219 9.35586 15.2664 6.37539 14.9758C3.77773 14.7223 1.875 12.3871 1.875 9.77734V8.125C1.875 7.77969 1.59531 7.5 1.25 7.5H0.625C0.279687 7.5 0 7.77969 0 8.125V9.69375C0 13.1953 2.49883 16.3168 5.9375 16.791V18.125H3.75C3.40469 18.125 3.125 18.4047 3.125 18.75V19.375C3.125 19.7203 3.40469 20 3.75 20H10C10.3453 20 10.625 19.7203 10.625 19.375V18.75C10.625 18.4047 10.3453 18.125 10 18.125H7.8125V16.8059C11.1605 16.3465 13.75 13.4727 13.75 10V8.125C13.75 7.77969 13.4703 7.5 13.125 7.5Z" fill="#4285F4"/>
</svg>
