<svg width="16" height="16" viewBox="0 0 21 21" fill="none" xmlns="http://www.w3.org/2000/svg">
<path fill-rule="evenodd" clip-rule="evenodd" d="M14.9893 13.566L20.369 18.9459C20.5581 19.1351 20.6643 19.3917 20.6642 19.6592C20.6641 19.9267 20.5577 20.1832 20.3685 20.3723C20.1793 20.5614 19.9227 20.6676 19.6552 20.6675C19.3877 20.6674 19.1312 20.5611 18.9421 20.3718L13.5623 14.992C11.9541 16.2376 9.93177 16.8238 7.90672 16.6313C5.88166 16.4387 4.00601 15.482 2.66132 13.9556C1.31663 12.4292 0.603922 10.4479 0.668181 8.41464C0.732439 6.38142 1.56884 4.44904 3.00723 3.01062C4.44561 1.57219 6.37794 0.735775 8.41111 0.671515C10.4443 0.607255 12.4256 1.31998 13.9519 2.6647C15.4783 4.00942 16.435 5.88513 16.6275 7.91023C16.8201 9.93534 16.2339 11.9577 14.9883 13.566H14.9893ZM8.66456 14.667C10.2558 14.667 11.7818 14.0348 12.907 12.9096C14.0322 11.7844 14.6643 10.2584 14.6643 8.66709C14.6643 7.07583 14.0322 5.54974 12.907 4.42454C11.7818 3.29935 10.2558 2.66722 8.66456 2.66722C7.07333 2.66722 5.54728 3.29935 4.42211 4.42454C3.29695 5.54974 2.66484 7.07583 2.66484 8.66709C2.66484 10.2584 3.29695 11.7844 4.42211 12.9096C5.54728 14.0348 7.07333 14.667 8.66456 14.667V14.667Z" fill="#9AA0A6"/>
</svg>
